<svg xmlns="http://www.w3.org/2000/svg" width="83.817" height="73.027" viewBox="0 0 83.817 73.027">
  <g id="air_by_cough_or_sneeze" transform="translate(-427.626 322.379)">
    <path id="path12058" d="M509.8-269.641a18.278,18.278,0,0,1-16.391,10.112,19.684,19.684,0,0,1-10.583,9.189,18.281,18.281,0,0,1-16.705-2.553c-4.9,4.644-14.8,3.133-18.04-2.623-4.517,1.645-9.675-1.277-11.613-5.527A11.269,11.269,0,0,1,438-272.806c-6.751-1.557-11.332-9.013-10.207-15.835a13.417,13.417,0,0,1,12.776-11.293c-.9-9.147,2.928-18.457,12.509-21.571,9.777-3.168,17.556,2.711,22.34,10.579,4.281-3.88,10.419-5.395,15.875-2.616,5.231,2.667,6.916,7.761,6.616,13.04,3.331-.785,6.861-.364,8.991,2.761a7.35,7.35,0,0,1-.163,8.483,17.94,17.94,0,0,1,3.056,19.617" fill="#7f96c9"/>
    <path id="path12060" d="M463-301.062c-.16.155-.443.267-.6.053s-.039-.629.037-.853c0-.02-1.168-.443-2.344-.887-.084.143-.172.284-.263.42a8.273,8.273,0,0,1-2.256,2.251c.079.223.155.433.224.621a.634.634,0,0,1,.389-.059l.141.181c-.029.347-.563.609-.777.62-.151.005-.343-.063-.328-.241s.26-.335.4-.415c0-.013-.121-.237-.293-.557a4.758,4.758,0,0,1-2.068.7,5.259,5.259,0,0,1-1.225-.052c-.171.6-.336,1.184-.471,1.675a.938.938,0,0,1,.523.265l.016.34c-.335.393-1.207.255-1.476.083-.187-.12-.361-.369-.189-.572s.605-.183.841-.16c.013,0,.107-.789.225-1.743a5.97,5.97,0,0,1-2.669-1.555c-.86.569-1.788,1.147-2.492,1.607a.917.917,0,0,1,.213.544.273.273,0,0,1-.213.264c-.511.073-1.071-.609-1.156-.917-.059-.213-.025-.517.237-.553s.573.264.736.437c.028,0,1.159-1.013,2.195-1.912a6.736,6.736,0,0,1-.541-.765c-.575.179-1.159.352-1.621.495a.618.618,0,0,1,.039.392l-.185.132c-.345-.045-.583-.589-.583-.8,0-.151.077-.34.255-.316s.324.275.4.419c.024,0,.741-.349,1.483-.7a5.639,5.639,0,0,1-.605-3.708c.028-.135.06-.267.1-.4-.744-.311-1.595-.709-2.221-.989a.626.626,0,0,1-.229.321l-.228-.024c-.228-.261-.048-.827.093-.989.1-.112.283-.2.4-.069s.06.42.023.575c0,.019,1.367.383,2.333.668a6.742,6.742,0,0,1,2.681-3.193c-.5-.976-1.016-2.061-1.421-2.871a.936.936,0,0,1-.567.151.275.275,0,0,1-.239-.243c-.016-.516.727-.995,1.043-1.044.219-.036.515.032.523.3s-.328.539-.517.68c0,.035,1.02,1.468,1.832,2.657a6.653,6.653,0,0,1,1.388-.519c.025-.521.059-1.033.079-1.451a.634.634,0,0,1-.383-.1l-.059-.22c.163-.309.755-.345.957-.269.14.052.292.189.208.345s-.371.211-.529.229c-.011,0,.055.645.124,1.375a5.716,5.716,0,0,1,2.839.16,5.466,5.466,0,0,1,.659.263c.433-.545.861-1.073,1.209-1.517a.919.919,0,0,1-.377-.448.271.271,0,0,1,.117-.317c.46-.233,1.209.235,1.389.5.125.183.191.48-.047.6s-.628-.067-.839-.179c-.015,0-.443.752-.948,1.628a5.7,5.7,0,0,1,1.6,1.4c.448-.195.889-.387,1.249-.549a.607.607,0,0,1-.085-.384l.171-.153c.345,0,.648.519.673.732.017.149-.037.345-.217.343s-.353-.236-.443-.368c-.017,0-.525.327-1.115.7a4.958,4.958,0,0,1,.651,1.383,5.177,5.177,0,0,1,.2,1.657c.193.028.376.053.545.076a.628.628,0,0,1,.131-.375l.224-.039c.293.185.279.781.188.975-.063.137-.215.276-.364.18s-.176-.388-.183-.547c0-.005-.225-.005-.559,0a6.9,6.9,0,0,1-.659,2.375c.768.42,1.536.856,2.153,1.193a.93.93,0,0,1,.379-.445.277.277,0,0,1,.335.064c.305.416-.031,1.232-.263,1.452" fill="#596cb4"/>
    <path id="path12062" d="M502.037-264.175c-.135-.031-.289-.141-.231-.3s.32-.232.463-.269c.009-.007-.161-.763-.325-1.529l-.309,0a5.173,5.173,0,0,1-1.943-.427l-.249.328.161.184-.048.135c-.192.1-.509-.089-.587-.2l.016-.252.352.071c.007,0,.084-.144.195-.343a2.959,2.959,0,0,1-1.065-.851,3.316,3.316,0,0,1-.385-.66c-.375.113-.735.223-1.039.317a.587.587,0,0,1,.037.364l-.173.123c-.32-.044-.541-.549-.541-.748,0-.137.072-.313.237-.292s.3.257.368.388c0,.007.449-.211.991-.468a3.742,3.742,0,0,1-.084-1.928c-.588-.259-1.205-.552-1.683-.767l-.215.3-.209-.024c-.212-.241-.041-.767.091-.916.093-.1.263-.188.371-.061s.055.391.019.533c.009.015.923.268,1.744.508a4.153,4.153,0,0,1,.22-.541c-.288-.241-.576-.489-.807-.685l-.193.153-.132-.053c-.092-.2.113-.5.227-.577l.252.027-.087.349c.008.013.433.272.869.541a3.52,3.52,0,0,1,1.744-1.567l.243-.081c-.087-.5-.165-1.077-.229-1.5l-.245-.012-.064-.127c.059-.209.417-.305.551-.285l.171.187-.295.207c-.009.005.26.845.436,1.451a4.194,4.194,0,0,1,2.581.332c.344-.592.739-1.229,1.028-1.716l-.271-.245.048-.207c.265-.183.767.047.9.195.092.1.156.281.02.375s-.393.011-.533-.041c-.016.012-.427,1.031-.777,1.857a4.143,4.143,0,0,1,.74.555c.283-.163.563-.319.789-.448l-.077-.235.095-.1c.219-.02.437.28.464.411l-.111.227-.3-.2c0-.005-.32.245-.679.527a3.573,3.573,0,0,1,.872,1.547,3.317,3.317,0,0,1,.084.433c.433.044.853.091,1.205.124a.568.568,0,0,1,.108-.349l.205-.045c.277.164.285.715.207.9-.053.128-.188.263-.331.177s-.175-.351-.188-.5c-.005-.009-.543.021-1.175.049a3.534,3.534,0,0,1-.195,1.312c.255.169.5.337.711.471l.173-.175.137.039c.115.183-.055.516-.157.6h-.255l.047-.357c-.007-.008-.351-.165-.745-.348a3.124,3.124,0,0,1-.508.808,3.215,3.215,0,0,1-.8.663l.143.313.241-.057.1.1c0,.216-.315.409-.449.427l-.216-.131.225-.28s-.073-.12-.188-.292a4.384,4.384,0,0,1-1.469.455c.037.544.067,1.095.1,1.532a.586.586,0,0,1,.361.048l.08.2c-.116.3-.657.4-.852.352" fill="#596cb4"/>
    <path id="path12064" d="M440.419-287.217c-.105.091-.285.149-.376.012s0-.395.056-.532c0-.012-.712-.319-1.428-.637l-.18.252A5.139,5.139,0,0,1,437-286.8c.041.143.081.276.117.395l.244-.021.081.119c-.031.215-.372.359-.507.357l-.195-.163.264-.244c0-.007-.067-.152-.161-.357a2.961,2.961,0,0,1-1.315.36,3.321,3.321,0,0,1-.761-.076c-.128.368-.252.725-.355,1.025a.6.6,0,0,1,.316.184l0,.212c-.223.233-.761.115-.923,0-.112-.081-.212-.241-.1-.363s.384-.092.531-.069c.008,0,.095-.487.2-1.077a3.725,3.725,0,0,1-1.607-1.065c-.556.323-1.156.649-1.611.909l.113.347-.143.156c-.321.028-.644-.419-.687-.613-.029-.135,0-.323.168-.336s.348.185.443.3c.016,0,.759-.588,1.436-1.111a4.16,4.16,0,0,1-.308-.5c-.364.091-.735.177-1.028.249l.009.247-.121.075c-.213-.041-.34-.388-.333-.523l.171-.188.232.275c.015,0,.475-.189.949-.383a3.524,3.524,0,0,1-.241-2.333l.077-.243c-.453-.223-.968-.5-1.348-.7l-.155.192-.141-.024c-.133-.171,0-.516.095-.613l.251-.028-.007.359c0,.012.839.288,1.429.5a4.219,4.219,0,0,1,1.788-1.891c-.276-.625-.559-1.321-.781-1.841l-.359.075-.139-.16c.009-.321.489-.593.687-.613.139-.015.321.039.315.205s-.223.325-.347.405c0,.021.581.952,1.044,1.723a4.083,4.083,0,0,1,.884-.272c.035-.324.073-.641.1-.9l-.233-.075-.029-.14c.112-.187.483-.188.605-.133l.117.223-.337.124c-.007,0,.011.4.027.861a3.554,3.554,0,0,1,1.763.2,3.641,3.641,0,0,1,.4.188c.291-.324.576-.636.809-.9l-.219-.293.085-.193c.295-.128.744.189.847.361.072.117.1.307-.051.371s-.389-.064-.516-.141c-.009,0-.3.452-.651.979a3.587,3.587,0,0,1,.947.929c.285-.105.568-.209.8-.3l-.039-.243.112-.089c.215.017.384.348.393.481l-.148.207-.263-.247c-.011,0-.34.185-.721.4a3.077,3.077,0,0,1,.356.887,3.238,3.238,0,0,1,.064,1.039l.336.067.1-.228.141-.017c.175.128.144.5.081.615l-.233.1-.095-.348s-.14-.012-.348-.02a4.328,4.328,0,0,1-.5,1.455c.461.291.924.589,1.3.823l.253-.264.205.052c.175.271-.064.767-.216.9" fill="#596cb4"/>
    <path id="path12066" d="M485.271-277.658c.16-.079.323-.261.2-.439s-.465-.2-.656-.208c-.015,0-.013-1-.024-2.013.131-.025.263-.052.391-.084a6.6,6.6,0,0,0,2.321-1.085l.408.34-.152.279.1.156c.271.075.616-.257.684-.417.044-.112.047-.276-.093-.313s-.324.105-.424.189c-.008,0-.144-.157-.34-.376a3.827,3.827,0,0,0,1.1-1.371,4.2,4.2,0,0,0,.3-.94c.5.037.988.073,1.4.105a.758.758,0,0,0,.057.469l.252.1c.389-.145.525-.841.468-1.092-.039-.173-.179-.375-.38-.3s-.3.405-.352.591c0,.011-.627-.136-1.379-.308a4.807,4.807,0,0,0-.44-2.445c.667-.493,1.359-1.037,1.9-1.441a.744.744,0,0,0,.352.311l.259-.088c.2-.367-.167-.979-.375-1.127-.147-.1-.384-.163-.484.027s.041.505.128.676c-.008.021-1.084.6-2.049,1.132a5.833,5.833,0,0,0-.429-.62c.293-.384.584-.777.82-1.087l.287.136.149-.105c.061-.272-.285-.6-.448-.661-.113-.039-.277-.035-.308.107s.12.32.208.415c-.007.017-.468.463-.94.927a4.528,4.528,0,0,0-2.636-1.477l-.329-.036c-.031-.648-.1-1.4-.136-1.951l.305-.084.045-.179c-.135-.245-.612-.264-.773-.2-.112.044-.232.157-.163.283s.3.161.429.175c.012,0-.088,1.137-.139,1.947a5.442,5.442,0,0,0-3.152,1.148c-.6-.647-1.277-1.336-1.777-1.865a.75.75,0,0,0,.271-.387l-.119-.245c-.385-.155-.952.276-1.076.5-.088.155-.117.4.081.476s.5-.1.657-.2c.025.009.828,1.176,1.5,2.116a5.375,5.375,0,0,0-.775.905c-.4-.123-.8-.24-1.119-.34l.032-.316-.151-.105c-.279.037-.468.476-.467.649,0,.121.063.273.2.253s.26-.223.319-.337c0-.007.472.22,1,.472a4.591,4.591,0,0,0-.66,2.189,4.542,4.542,0,0,0,.017.571c-.532.177-1.048.355-1.48.5a.737.737,0,0,0-.235-.409h-.272c-.3.284-.156.979-.005,1.188.1.144.311.277.465.129s.123-.493.1-.681c0-.012.689-.129,1.492-.269a4.554,4.554,0,0,0,.615,1.593c-.272.285-.539.565-.76.793l-.267-.171-.163.085c-.092.264.213.633.368.711.108.055.271.067.319-.068s-.081-.333-.156-.437c0-.012.392-.307.836-.649a4.018,4.018,0,0,0,.867.873,4.131,4.131,0,0,0,1.2.607c-.032.155-.063.3-.092.433l-.319,0-.092.157c.06.273.513.427.687.411.119-.009.267-.085.235-.224s-.244-.24-.363-.289c0,0,.059-.172.155-.423a5.565,5.565,0,0,0,1.976.157c.107.695.224,1.395.309,1.955a.749.749,0,0,0-.441.163l-.044.271c.231.345.94.316,1.171.2" fill="#596cb4"/>
    <path id="path12068" d="M453.394-255.535c.212.067.511.041.556-.216s-.244-.577-.409-.743c-.009-.017.841-.907,1.689-1.816.137.089.277.175.419.256a8.162,8.162,0,0,0,2.991,1c.028.232.053.452.075.648a.643.643,0,0,0-.371.12l-.045.223c.177.295.767.295.961.208.136-.061.277-.205.184-.357s-.377-.183-.536-.193c-.005-.011,0-.261.015-.623a4.733,4.733,0,0,0,2.141-.288,5.328,5.328,0,0,0,1.065-.585c.416.46.819.9,1.153,1.279a.93.93,0,0,0-.345.465.273.273,0,0,0,.135.307c.469.2,1.183-.3,1.345-.575.112-.189.159-.487-.084-.592s-.616.1-.816.228c-.012.007-.443-.652-.967-1.445a5.916,5.916,0,0,0,1.684-2.553c1.013.125,2.092.231,2.917.328a.914.914,0,0,0,.049.577.269.269,0,0,0,.305.139c.485-.159.681-1.011.623-1.321-.043-.215-.2-.469-.455-.387s-.393.487-.46.712c-.024.013-1.473-.389-2.788-.731a6.734,6.734,0,0,0,.144-.917c.588-.092,1.181-.2,1.655-.273a.628.628,0,0,0,.139.364l.223.036c.287-.192.257-.78.163-.971-.067-.132-.219-.268-.364-.168s-.167.387-.168.545c-.021.011-.811.016-1.624.029a5.6,5.6,0,0,0-1.095-3.556l-.265-.309c.524-.6,1.1-1.332,1.536-1.855l.344.183.192-.12c.088-.332-.321-.756-.519-.837-.137-.055-.34-.056-.385.115s.132.4.235.52c.007.016-1.045.939-1.777,1.619a6.673,6.673,0,0,0-3.784-1.652c.015-1.087-.005-2.276,0-3.173a.92.92,0,0,0,.569-.115l.1-.32c-.213-.464-1.083-.563-1.385-.468-.209.064-.443.256-.332.495s.528.333.759.377c.016.029-.259,1.751-.455,3.163a6.6,6.6,0,0,0-1.46.151c-.252-.451-.507-.891-.708-1.253a.618.618,0,0,0,.3-.255l-.045-.223c-.28-.2-.821.028-.967.184-.1.108-.176.3-.032.4s.42.021.569-.031c.011,0,.235.6.495,1.273a5.675,5.675,0,0,0-2.448,1.391,6.009,6.009,0,0,0-.468.523c-.625-.292-1.236-.572-1.74-.813a.907.907,0,0,0,.137-.563.267.267,0,0,0-.244-.229c-.511,0-.969.739-1.013,1.053-.031.217.043.511.305.511s.527-.335.664-.528c.015-.007.724.473,1.56,1.028a5.6,5.6,0,0,0-.807,1.943c-.484.021-.959.047-1.349.061a.616.616,0,0,0-.093-.379l-.219-.061c-.305.157-.347.745-.276.947.051.139.185.289.344.209s.209-.365.231-.523c.016-.008.611.059,1.3.132a4.929,4.929,0,0,0,.031,1.513,5.157,5.157,0,0,0,.552,1.557c-.159.109-.309.212-.449.307l-.281-.273-.216.064c-.177.292.1.815.263.948.115.092.311.149.4,0s-.015-.423-.079-.565c0-.005.2-.1.5-.247a6.786,6.786,0,0,0,1.629,1.816c-.5.712-.985,1.437-1.384,2.008a.939.939,0,0,0-.533-.229.272.272,0,0,0-.268.2c-.088.5.569,1.079.871,1.173" fill="#596cb4"/>
  </g>
</svg>
