<svg xmlns="http://www.w3.org/2000/svg" width="121.283" height="79.126" viewBox="0 0 121.283 79.126">
  <g id="avoid_personal_contact" transform="translate(-705.917 142.152)">
    <g id="g12316">
      <g id="Group_6" data-name="Group 6">
        <path id="path12324" d="M715.36-128.864s21.477,8.948,23.811,8.979,19.671-.245,25.735,1.5,27.057,13.532,32.573,18.945S783.817-75,774.683-73.969s-32.311-10.647-38.547-12.963S725.281-97.1,725.281-97.1l-18.26-5.006s-5.576-19.3,8.339-26.756" fill="#9ac4ce"/>
        <path id="path12326" d="M734.871-104.726a27.839,27.839,0,0,1,19.239,3.441c5.977,3.633,8.971,9.536,11.707,15.724.115.259-.309.478-.449.225-3.155-5.717-6.521-11.525-12.333-14.9-5.575-3.237-11.8-3.72-18.093-3.46a.517.517,0,0,1-.069-1.031" fill="#82b1bb"/>
        <path id="path12328" d="M825.97-100.726s5.291-10.937-6.075-25.537c0,0-18.112,5.013-21.149,4.452-5.395-1-21.731-5.049-27.927-4.549s-17.952,10.415-25.253,12.136-8.175,3.339-7.613,5.237,12.191,2.8,23.367-1.156c0,0-22.972,16.979-24.143,20.828s3.677,5.552,4.917,5.1A9.128,9.128,0,0,0,745.4-80.83a9.926,9.926,0,0,0,5.847.925s.952,5.493,7.416,4.493c0,0-.588,3.821,4.86,3.94S786.21-76.58,793-80.8s15.369-13.493,17.173-14.36,15.8-5.563,15.8-5.563" fill="#d87561"/>
        <path id="path12330" d="M758.741-75.756c7.363-3.58,15.181-5.986,22.4-9.973a.221.221,0,0,1,.223.382c-6.592,4.419-14.377,9.015-22.368,10.184-.331.048-.615-.418-.251-.594" fill="#a95043"/>
        <path id="path12332" d="M751.265-80.273c7.307-5.486,15.583-9.049,23.035-14.048.128-.088.293.121.169.219a110.376,110.376,0,0,1-23,14.151c-.4.176-.569-.048-.207-.321" fill="#a95043"/>
        <path id="path12334" d="M741.922-84.678c2.873-3.46,7.2-6.1,10.773-8.824,3.993-3.043,8.071-5.956,12.189-8.821.213-.148.489.2.281.364-3.932,3.11-7.857,6.227-11.812,9.308-3.532,2.751-7.136,6.324-11.151,8.339a.233.233,0,0,1-.281-.365" fill="#a95043"/>
        <path id="path12336" d="M770.287-120.916c3.735,1.536,5.419,4.908,9.132,9.244,2.768,3.232,8.3,6.733,5.9,9.185s-10.1-1.833-13.649-4.768-9.653-3.127-10.348-2.89-10.9,5.594-18.433,4.606-11.216-15.739-11.216-15.739,8.385.585,14.051-1.12c10.847-3.263,17.919-1.251,24.567,1.481" fill="#9ac4ce"/>
        <path id="path12338" d="M793.115-79.036c.547,3.56-4.541,6.636-6.748,5.269s-9.183-11.966-8.707-14.128,3.36-3.957,5.4-2.5,9.629,8.564,10.059,11.361" fill="#9ac4ce"/>
        <path id="path12340" d="M798.634-86.649c1.239,3.118-2.739,6.971-5.025,6.188S782.778-89.4,782.758-91.466s2.224-4.291,4.377-3.395,10.524,5.763,11.5,8.212" fill="#9ac4ce"/>
        <path id="path12342" d="M784.223-74.086c-.228,3.346-5.477,5.106-7.2,3.415s-5.909-12.744-5.037-14.611,3.859-2.912,5.413-1.176,7.007,9.743,6.828,12.372" fill="#9ac4ce"/>
        <path id="path12344" d="M776.211-70.856c-.812,2.985-5.877,3.623-7.129,1.78s-3.031-12.589-1.9-14.119,4.015-1.932,5.105-.08,4.565,10.076,3.927,12.418" fill="#9ac4ce"/>
      </g>
    </g>
    <path id="path12346" d="M801.163-102.588H797.83A32.782,32.782,0,0,1,788.2-79.326a32.776,32.776,0,0,1-23.261,9.634,32.774,32.774,0,0,1-23.261-9.634,32.783,32.783,0,0,1-9.636-23.261,32.786,32.786,0,0,1,9.636-23.262,32.773,32.773,0,0,1,23.261-9.635A32.776,32.776,0,0,1,788.2-125.85a32.784,32.784,0,0,1,9.635,23.262H804.5a39.563,39.563,0,0,0-39.563-39.564,39.565,39.565,0,0,0-39.564,39.564,39.564,39.564,0,0,0,39.564,39.562A39.563,39.563,0,0,0,804.5-102.588h-3.333" fill="#596cb4"/>
    <path id="path12348" d="M737.717-126.577l51.205,51.2,4.715-4.715-51.206-51.2" fill="#596cb4"/>
  </g>
</svg>
