<svg xmlns="http://www.w3.org/2000/svg" width="34.917" height="87.448" viewBox="0 0 34.917 87.448">
  <g id="contaminated_objects" transform="translate(-747.527 329.577)">
    <path id="path12080" d="M773.7-322.389H756.27v-7.188H773.7v7.188" fill="#d87561"/>
    <path id="path12082" d="M779.979-300.533a1.388,1.388,0,0,0,1.384,1.384h1.081v2.687h-1.081a1.389,1.389,0,0,0-1.384,1.385,1.387,1.387,0,0,0,1.384,1.384h1.081V-291h-1.081a1.38,1.38,0,0,0-1.384,1.385,1.388,1.388,0,0,0,1.384,1.384h1.081v2.673h-1.081a1.389,1.389,0,0,0-1.384,1.385,1.38,1.38,0,0,0,1.384,1.385h1.081v35.3a5.355,5.355,0,0,1-5.361,5.359H752.889a5.356,5.356,0,0,1-5.361-5.359v-35.3h1.58a1.381,1.381,0,0,0,1.385-1.385,1.39,1.39,0,0,0-1.385-1.385h-1.58v-2.673h1.58a1.389,1.389,0,0,0,1.385-1.384A1.381,1.381,0,0,0,749.107-291h-1.58v-2.688h1.58a1.388,1.388,0,0,0,1.385-1.384,1.39,1.39,0,0,0-1.385-1.385h-1.58v-2.687h1.58a1.389,1.389,0,0,0,1.385-1.384,1.389,1.389,0,0,0-1.385-1.385h-1.58V-308.1a5.791,5.791,0,0,1,2.2-4.529l8.877-6.995h.015v-2.769h12.74v2.769l8.88,6.995a5.793,5.793,0,0,1,2.2,4.529v6.177h-1.081a1.388,1.388,0,0,0-1.384,1.385" fill="#7f96c9"/>
    <path id="path12084" d="M782.445-254.771H747.528v-21.048h34.917v21.048" fill="#596cb4"/>
  </g>
</svg>
