<svg xmlns="http://www.w3.org/2000/svg" width="134.126" height="70.064" viewBox="0 0 134.126 70.064">
  <g id="handwash" transform="translate(-421.201 139.714)">
    <g id="Group_5" data-name="Group 5">
      <path id="path12270" d="M518.489-128.638s-27.767,7.7-31.469,5.629a61.509,61.509,0,0,0-15.22-6.369c-6.777-1.778-17.109-2-22.219-3.111s-10.221,1.366-6.444,4.959,15.887,5.15,15.887,6.928-36.105,11-35.995,15.109c.067,2.47,9.012,1.367,16.3.264,4.833-.732,8.939-1.464,9.248-1.154.779.778-28.772,8.109-27.328,12.109.84,2.326,10.659.631,18.839-1.063,5.887-1.219,10.924-2.437,11.156-2.159.556.666-22.552,8.332-22,11.775.32,1.982,8.775.321,16-1.34,5.325-1.226,9.984-2.451,10.22-2.215.555.556-18.22,5.555-16.553,9.221s30.551-5.888,36.216-7.111,14.553-4.888,17.22-8.332,33.624-6.937,33.624-6.937,1.983-19.048-7.487-26.205" fill="#d87561"/>
      <path id="path12272" d="M447.16-105.649q-.318-.32-.607-.668a14.292,14.292,0,0,1,1.591-.139.75.75,0,0,1,.436.073c.115.113-.424.369-1.42.733m-3.088-9.305a9.711,9.711,0,0,1,.615-2.371,5.353,5.353,0,0,1-1.391-2.833,4.737,4.737,0,0,1,1.66-4.827,7.049,7.049,0,0,1-.66-1.653c4.629,2.976,14.728,4.413,14.728,6.036,0,.787-7.075,3.032-14.952,5.648m42.163-8.491a60.107,60.107,0,0,0-14.435-5.933c-6.777-1.778-17.109-2-22.219-3.111a11.718,11.718,0,0,0-2.477-.268,10.125,10.125,0,0,0-1.9.173,9.413,9.413,0,0,1,3.436-3.481,11.365,11.365,0,0,1,5.632-1.444,10.587,10.587,0,0,1,4.785,1.085c1.416-2.144,4.439-3.291,6.915-3.291.128,0,.252,0,.376.009a6.539,6.539,0,0,1,6.033,4.427,5.9,5.9,0,0,1,2.892-.784,5.015,5.015,0,0,1,1.779.32,4.525,4.525,0,0,1,2.567,2.549,7.861,7.861,0,0,1,6.213,3.957,6.8,6.8,0,0,1,.4,5.791" fill="#bfdbe0"/>
      <path id="path12274" d="M454.674-102.588a10.7,10.7,0,0,1-6.917-2.511c-.205-.175-.405-.358-.6-.551,1-.364,1.535-.62,1.42-.733a.749.749,0,0,0-.436-.073,14.289,14.289,0,0,0-1.591.139,11.475,11.475,0,0,1-2.481-8.637c7.877-2.616,14.952-4.861,14.952-5.648,0-1.623-10.1-3.06-14.728-6.036a8.024,8.024,0,0,1,.908-5.945,10.125,10.125,0,0,1,1.9-.173,11.719,11.719,0,0,1,2.477.268c5.109,1.111,15.441,1.333,22.219,3.111a60.106,60.106,0,0,1,14.435,5.933,8.813,8.813,0,0,1-1.711,2.745,4.729,4.729,0,0,1,.927,3.447,3.731,3.731,0,0,1-2.571,3.07,8.2,8.2,0,0,1,.525,5.463,5.762,5.762,0,0,0-1.712-.952,5.441,5.441,0,0,0-1.823-.32,6.523,6.523,0,0,0-5.647,4.076,3.492,3.492,0,0,0-1.753-.484c-.056,0-.112,0-.168,0l-.181-.111c-.045.048-.091.1-.137.143a3.305,3.305,0,0,0-1.329.519,4.091,4.091,0,0,0-1.216,1.256,6.713,6.713,0,0,1-2.692.59,5.219,5.219,0,0,1-4.273-2.121,10.118,10.118,0,0,1-7.8,3.533" fill="#b29f9e"/>
      <path id="path12276" d="M482.237-69.65a8.3,8.3,0,0,1-2.675-.439,10.209,10.209,0,0,1-6.34-6.793,5.043,5.043,0,0,1-.652.043,8.041,8.041,0,0,1-5.823-3.022,6.055,6.055,0,0,1-1.285-4.63c4.369-1.244,8.012-2.315,9.669-2.672,5.667-1.221,14.553-4.888,17.22-8.332a4.509,4.509,0,0,1,1.741-1.1,9.534,9.534,0,0,1,6.8,8.967,9.974,9.974,0,0,1-6.42,9.221,4.78,4.78,0,0,1-1.091,2.594,4.262,4.262,0,0,1-3.42,1.78,4.652,4.652,0,0,1-.8-.069,7.169,7.169,0,0,1-6.929,4.449" fill="#bfdbe0"/>
      <path id="path12278" d="M465.463-84.492a5.5,5.5,0,0,1,.729-2.016,4.949,4.949,0,0,1-3.045-2.867,4.03,4.03,0,0,1,.209-3.218,7.006,7.006,0,0,1-.977-6.493,6.4,6.4,0,0,1,6.351-4.119h.152a4.185,4.185,0,0,1,.557-1.387,8.272,8.272,0,0,0,2.545-1.774,3.069,3.069,0,0,1,.319-.032l.1.06a7.089,7.089,0,0,0,4.955,2.087,6.453,6.453,0,0,0,3.2-.845,5.908,5.908,0,0,0,2.851-3.625,6.223,6.223,0,0,1,2.228,5.253l.048.288c3.745.147,6.623,2.889,5.909,6.26h.153a8.571,8.571,0,0,1,2.349.327,4.51,4.51,0,0,0-1.741,1.1c-2.667,3.444-11.553,7.11-17.22,8.332-1.657.357-5.3,1.428-9.669,2.672" fill="#b29f9e"/>
      <path id="path12280" d="M477.356-104.249a7.09,7.09,0,0,1-4.955-2.087l-.1-.06c.056,0,.112,0,.168,0a3.492,3.492,0,0,1,1.753.484,6.523,6.523,0,0,1,5.647-4.076,5.441,5.441,0,0,1,1.823.32,5.763,5.763,0,0,1,1.712.952,5.909,5.909,0,0,1-2.851,3.625,6.453,6.453,0,0,1-3.2.845m-7.917-.34a4.09,4.09,0,0,1,1.216-1.256,3.305,3.305,0,0,1,1.329-.519,8.273,8.273,0,0,1-2.545,1.774" fill="#a2b5bc"/>
      <path id="path12282" d="M476.5-84.932l-20.943-7a13.046,13.046,0,0,1-8.241-16.508l2.009-6.013a13.047,13.047,0,0,1,16.507-8.241l20.944,7a13.047,13.047,0,0,1,8.241,16.507l-2.009,6.015A13.047,13.047,0,0,1,476.5-84.932" fill="#9ac4ce"/>
      <path id="path12284" d="M448.931-134.112l.589,1.847,1.847.589-1.847.59-.589,1.846-.589-1.846-1.847-.59,1.847-.589.589-1.847" fill="#fff"/>
      <path id="path12286" d="M470.4-85.673l.589,1.847,1.847.589-1.847.59L470.4-80.8l-.589-1.846-1.847-.59,1.847-.589.589-1.847" fill="#fff"/>
      <path id="path12288" d="M489.9-120.213l.589,1.849,1.847.587-1.847.59-.589,1.847-.589-1.847-1.847-.59,1.847-.587.589-1.849" fill="#fff"/>
      <path id="path12290" d="M436.06-91.916l.589,1.847,1.848.589-1.848.59-.589,1.846-.589-1.846-1.847-.59,1.847-.589.589-1.847" fill="#fff"/>
      <path id="path12292" d="M452.168-109.329l.589,1.848,1.848.588-1.848.589-.589,3.3-.588-3.3-1.848-.589,1.848-.588.588-1.848" fill="#fff"/>
      <path id="path12294" d="M486.3-79.6l.588,1.847,1.848.588-1.848.589-.588,3.3-.589-3.3-1.848-.589,1.848-.588L486.3-79.6" fill="#fff"/>
      <path id="path12296" d="M476.04-134.112l.589,1.847,1.847.589-1.847.59-.589,3.3-.589-3.3-1.847-.59,1.847-.589.589-1.847" fill="#fff"/>
      <path id="path12298" d="M549.944-74.949s7.851-8.591,4.591-22.514c0,0-14.108-2.667-17-4.667s-5.448-7.109-10.112-10.443-21.549-5.443-24.548-7.22-7.221-6.888-9.776-5.555,4.332,12.664,13.441,16.774c0,0-19.263-5.634-21.552-6.369-3.925-1.259-14.885-8.184-16.552-6.407s2.7,8.184,11,12.554c3.68,1.939,12.664,5.444,12.664,5.444s-12.443-2.556-15.775-4-13.776-5.776-15.664-3.221,11.664,10.22,14.219,11.22,12.665,4.111,12.665,4.111-10.851-2.592-13.961-3.7-11.843-4.595-13.1-2.667c-1.875,2.871,12.289,10.036,18.733,12.257,0,0-12.828-6.483-14.109-4.721-1.777,2.444,10.555,9.795,12.849,10.98s21.627,7.405,27.921,6.667,19.035-.89,22.145-1.187,21.923,2.667,21.923,2.667" fill="#596cb4"/>
      <path id="path12300" d="M492.044-86.317c-4.764-1.154-9.54-2.494-14.331-3.5l-.076.18a44.057,44.057,0,0,0,14.356,3.7c.216.021.257-.326.051-.375" fill="#6a81ba"/>
      <path id="path12302" d="M493.364-93.892a18.414,18.414,0,0,0-3.66-1.024,25.906,25.906,0,0,0-3.7-.821l-.047.172a17.012,17.012,0,0,0,3.579,1.247,13.632,13.632,0,0,0,3.736.753c.164,0,.251-.246.088-.327" fill="#6a81ba"/>
      <path id="path12304" d="M498.949-102.007a25.276,25.276,0,0,0-7.353-1.712l-.025.183a58.337,58.337,0,0,0,7.228,1.888c.2.032.372-.264.151-.359" fill="#6a81ba"/>
    </g>
  </g>
</svg>
