<svg xmlns="http://www.w3.org/2000/svg" width="98.452" height="58.897" viewBox="0 0 98.452 58.897">
  <g id="mask" transform="translate(-567.349 129.636)">
    <path id="path12228" d="M588.4-84.271c-1.821-4.181-5.187-7.381-8.519-10.377-.471-.426-1.173.273-.7.7,2.7,2.419,5.439,4.925,7.287,8.088a16.381,16.381,0,0,1,1.984,5.005c1.384,6.973-3.475,6.6-5.805,5.3a11.228,11.228,0,0,1-6.051-9.712c.015-2.459,1.265-4.731,1.053-7.193-.133-1.556-.768-3.556-2.173-4.44a3.842,3.842,0,0,0-1.339-.484c-2.663-.528-4.76-.48-5.161-3.931-.813-7,4.509-14.472,11-16.6a.2.2,0,0,0-.1-.376c-7.536,1.7-12.939,9.175-12.5,16.973.144,2.512,1.453,4.973,4.105,5.441,1.3.23,2.975-.117,3.985,1.107,1.284,1.556.671,3.984.284,5.688a15.232,15.232,0,0,0-.523,5.069,12.173,12.173,0,0,0,5.764,9.171c2.224,1.339,5.925,2.672,7.851.158s.652-7.073-.445-9.593" fill="#596cb4"/>
    <path id="path12230" d="M664.36-94.484a29.429,29.429,0,0,1-.469-8.287c.289-7.731-1.323-13.676-9.449-15.715-.209-.053-.332.275-.128.36,3.4,1.435,6.375,3.572,7.517,7.239.957,3.067.609,6.3.523,9.446a26.473,26.473,0,0,0,.971,8.49c1.08,3.665,1.7,6.577-.213,10.128a28.5,28.5,0,0,1-5.784,7.094c-1.389,1.289-5.8,5.528-7.915,2.232-1.164-1.809-.287-5.157.423-6.973,1.9-4.861,6.975-8.307,6.113-14.009-.112-.739-1.28-.676-1.168.068.811,5.359-4.148,8.829-6.011,13.4-1.007,2.478-1.739,6.273-.148,8.714,3.648,5.6,12.635-5.473,14.455-8.092a12.779,12.779,0,0,0,2.68-8.525,38.911,38.911,0,0,0-1.4-5.569" fill="#596cb4"/>
    <path id="path12232" d="M656.294-92.325c-1.683,1.612-11.555,1.849-18.821,4.63-5.307,2.029-16.505,6.448-20.055,6.491h-.061c-3.549-.043-14.748-4.461-20.055-6.491-7.267-2.78-17.139-3.018-18.821-4.63-1.665-1.627-1.511-26.646-.739-27.343s7.173-.348,14.824-2.613c4.659-1.376,19.731-7.311,24.791-7.355h.061c5.06.044,20.132,5.979,24.791,7.355,7.651,2.265,14.053,1.919,14.825,2.613s.925,25.716-.74,27.343" fill="#7f96c9"/>
    <path id="path12234" d="M582.693-117.073c-.008-.225-.384-.3-.416-.056-1.059,7.8-.527,15.95.293,23.748.041.4.667.416.639,0-.523-7.908-.248-15.787-.516-23.692" fill="#6a81ba"/>
    <path id="path12236" d="M652.74-117.708c-.024-.267-.432-.276-.424,0,.215,7.963-.113,15.958.156,23.908a.212.212,0,0,0,.424,0c.947-7.836.52-16.067-.156-23.908" fill="#6a81ba"/>
    <path id="path12238" d="M649.36-114.681c-5.445-1.264-10.9-2.457-16.3-3.914-4.88-1.316-9.957-3.54-15-3.924-4.917-.373-10.029,1.39-14.728,2.687-5.7,1.572-11.373,3.2-17.023,4.954l.029.12q7.728-1.878,15.392-4.009c5.353-1.478,11.245-3.661,16.824-3.06,5.032.544,10.035,2.686,14.927,4,5.213,1.4,10.461,2.673,15.771,3.585.265.047.387-.375.113-.439" fill="#6a81ba"/>
    <path id="path12240" d="M621.041-88.292c-5.593.812-12.235-2.308-17.567-3.86-5.245-1.528-10.483-3.072-15.776-4.431a.109.109,0,0,0-.057.209c5.987,1.983,12.045,3.729,18.091,5.519,4.868,1.441,10.248,3.909,15.4,2.883.212-.044.117-.349-.089-.32" fill="#6a81ba"/>
    <path id="path12242" d="M648.417-95.9A125.6,125.6,0,0,0,626.8-90.041l.029.109c6.852-1.975,14.791-3.816,21.691-5.588.249-.063.14-.418-.105-.379" fill="#6a81ba"/>
    <path id="path12244" d="M624.221-113.765c-5.872-1.428-12.259-.468-18.165.311a119.123,119.123,0,0,0-18.453,3.889l.028.1c11.8-2.641,24.416-5.481,36.536-3.9.232.031.277-.351.055-.4" fill="#6a81ba"/>
    <path id="path12246" d="M649.068-109.64a137.9,137.9,0,0,0-20.771-3.472l-.015.1c6.867,1.328,13.8,2.819,20.743,3.695.187.023.219-.277.043-.324" fill="#6a81ba"/>
    <path id="path12248" d="M608.176-101.085a188.962,188.962,0,0,0-20.56-3.361l-.013.1a188.518,188.518,0,0,0,20.525,3.613c.2.023.243-.308.048-.353" fill="#6a81ba"/>
    <path id="path12250" d="M648.97-103.948c-11.723,2.131-22.907,5.758-34.944,4.431l-.024.184c5.353,1.522,11.151.749,16.536-.252,6.195-1.153,12.412-2.5,18.523-4.034.216-.054.123-.367-.091-.328" fill="#6a81ba"/>
  </g>
</svg>
