<svg xmlns="http://www.w3.org/2000/svg" width="121.282" height="60.822" viewBox="0 0 121.282 60.822">
  <g id="personal_contact" transform="translate(-558.963 312.155)">
    <g id="Group_4" data-name="Group 4">
      <path id="path12026" d="M670.8-312.155s-21.476,8.949-23.811,8.979-19.669-.244-25.733,1.5-27.059,13.533-32.573,18.945,13.661,24.44,22.793,25.476,32.311-10.648,38.548-12.964,10.855-10.169,10.855-10.169l18.26-5.007s5.577-19.3-8.339-26.756" fill="#d87561"/>
      <path id="path12028" d="M651.29-288.017a27.834,27.834,0,0,0-19.237,3.44c-5.977,3.633-8.971,9.537-11.707,15.724-.115.26.309.477.448.225,3.156-5.717,6.521-11.524,12.333-14.9,5.575-3.237,11.8-3.72,18.093-3.459a.517.517,0,0,0,.069-1.031" fill="#a95043"/>
      <path id="path12030" d="M560.193-284.018s-5.291-10.937,6.073-25.537c0,0,18.113,5.013,21.151,4.452,5.395-1,21.729-5.048,27.925-4.547s17.952,10.412,25.253,12.135,8.175,3.337,7.613,5.236-12.189,2.8-23.365-1.156c0,0,22.972,16.98,24.141,20.828s-3.676,5.553-4.916,5.1a9.124,9.124,0,0,1-3.309,3.383,9.936,9.936,0,0,1-5.847.928s-.952,5.492-7.415,4.492c0,0,.588,3.82-4.861,3.939s-22.684-5.107-29.473-9.331-15.369-13.493-17.173-14.361-15.8-5.563-15.8-5.563" fill="#596cb4"/>
      <path id="path12032" d="M627.421-259.047c-7.361-3.58-15.18-5.985-22.395-9.973a.222.222,0,0,0-.224.383c6.592,4.419,14.377,9.015,22.369,10.184.329.049.613-.416.249-.593" fill="#6a81ba"/>
      <path id="path12034" d="M634.9-263.563c-7.305-5.488-15.581-9.051-23.033-14.049-.129-.087-.295.121-.169.219a110.277,110.277,0,0,0,23,14.151c.4.176.569-.047.205-.32" fill="#6a81ba"/>
      <path id="path12036" d="M644.241-267.97c-2.873-3.46-7.2-6.1-10.775-8.824-3.992-3.041-8.069-5.955-12.189-8.821-.213-.148-.488.2-.281.365,3.932,3.111,7.859,6.227,11.813,9.307,3.532,2.751,7.135,6.325,11.151,8.339a.234.234,0,0,0,.281-.365" fill="#6a81ba"/>
      <path id="path12038" d="M615.874-304.206c-3.735,1.535-5.417,4.907-9.131,9.243-2.769,3.232-8.3,6.733-5.9,9.185s10.1-1.833,13.648-4.767,9.655-3.128,10.349-2.891,10.9,5.593,18.433,4.605,11.215-15.739,11.215-15.739-8.385.587-14.051-1.12c-10.845-3.263-17.919-1.249-24.567,1.483" fill="#d87561"/>
      <path id="path12040" d="M593.047-262.327c-.547,3.56,4.541,6.636,6.748,5.269s9.184-11.965,8.708-14.128-3.36-3.955-5.4-2.5-9.629,8.564-10.06,11.361" fill="#d87561"/>
      <path id="path12042" d="M587.529-269.941c-1.239,3.117,2.737,6.971,5.025,6.191s10.831-8.945,10.849-11.007-2.224-4.292-4.376-3.4-10.525,5.763-11.5,8.212" fill="#d87561"/>
      <path id="path12044" d="M601.938-257.378c.228,3.348,5.477,5.107,7.2,3.415s5.911-12.743,5.039-14.611-3.86-2.911-5.415-1.175-7.007,9.741-6.828,12.371" fill="#d87561"/>
      <path id="path12046" d="M609.952-254.146c.812,2.984,5.876,3.621,7.131,1.78s3.029-12.591,1.9-14.119-4.016-1.932-5.105-.081-4.567,10.076-3.927,12.42" fill="#d87561"/>
    </g>
  </g>
</svg>
